<?xml version="1.0" standalone="no"?>
<!DOCTYPE svg PUBLIC "-//W3C//DTD SVG 20010904//EN"
 "http://www.w3.org/TR/2001/REC-SVG-20010904/DTD/svg10.dtd">
<svg version="1.0" xmlns="http://www.w3.org/2000/svg"
 width="150.000000pt" height="150.000000pt" viewBox="0 0 150.000000 150.000000"
 preserveAspectRatio="xMidYMid meet">
<metadata>
Created by potrace 1.14, written by Peter Selinger 2001-2017
</metadata>
<g transform="translate(0.000000,150.000000) scale(0.100000,-0.100000)"
fill="#000000" stroke="none">
<path d="M860 1244 c-131 -50 -202 -140 -203 -259 -2 -171 173 -340 340 -329
88 5 172 60 221 143 37 63 38 172 3 244 -54 111 -175 197 -286 203 -33 2 -67
1 -75 -2z m137 -148 c99 -51 143 -160 95 -238 -65 -105 -205 -83 -281 42 -74
123 58 263 186 196z"/>
<path d="M462 576 c-150 -150 -212 -219 -212 -235 0 -59 49 -101 103 -87 12 3
115 99 229 213 l208 208 -59 57 -58 57 -211 -213z"/>
<path d="M344 597 c-28 -15 -93 -90 -94 -107 0 -8 5 -22 10 -30 8 -12 15 -9
46 20 77 72 103 105 94 114 -14 14 -34 15 -56 3z"/>
</g>
</svg>
